<?xml version="1.0" encoding="UTF-8"?>
<svg version="1.1" xmlns="http://www.w3.org/2000/svg" width="500" height="500">
<path d="M0 0 C0.69041708 -0.00508782 1.38083417 -0.01017564 2.09217298 -0.01541764 C4.41116793 -0.03114328 6.73013172 -0.03966752 9.04916382 -0.04811096 C10.70986122 -0.05764946 12.37055664 -0.06754062 14.03125 -0.07775879 C19.49081055 -0.10914851 24.95038635 -0.12941311 30.41000366 -0.14796448 C31.33918972 -0.1512618 32.26837577 -0.15455912 33.22571898 -0.15795636 C41.99105487 -0.18874059 50.75639423 -0.21544515 59.52176857 -0.23237514 C70.7278314 -0.25427375 81.93341459 -0.29622674 93.13928568 -0.36581272 C101.02137219 -0.41309351 108.90332949 -0.43731426 116.78555334 -0.44457203 C121.49152045 -0.44952269 126.19694702 -0.46454724 130.90275955 -0.50431633 C135.33361595 -0.54126769 139.76362501 -0.54956478 144.19460678 -0.5363102 C145.81632126 -0.53636401 147.43807409 -0.54660414 149.05964661 -0.56806183 C158.18890968 -0.68235766 165.3135978 -0.40460999 172.24594116 6.16062927 C177.1809238 11.35534784 179.92844498 17.191927 180.49594116 24.28562927 C179.8758344 33.89728413 176.7460112 40.27604327 169.60531616 46.61766052 C168.334214 47.70915042 167.05906635 48.7959374 165.78109741 49.87937927 C162.3026032 53.00948808 159.03609722 56.33457474 155.74594116 59.66062927 C151.40153153 64.04788527 147.0554483 68.31244204 142.33187866 72.29344177 C138.74197484 75.50687628 135.40724501 78.9805191 132.02059937 82.40550232 C128.6334931 85.81616764 125.16810369 89.03041377 121.49203491 92.12937927 C117.48612736 95.75211306 113.74758977 99.65904765 109.99227905 103.53929138 C109.40825317 104.13491882 108.82422729 104.73054626 108.22250366 105.34422302 C107.43480591 106.15717834 107.43480591 106.15717834 106.63119507 106.98655701 C105.24594116 108.16062927 105.24594116 108.16062927 103.24594116 108.16062927 C103.24594116 108.82062927 103.24594116 109.48062927 103.24594116 110.16062927 C101.2633369 111.84795204 99.26270696 113.51428985 97.24594116 115.16062927 C96.91594116 115.82062927 96.58594116 116.48062927 96.24594116 117.16062927 C97.43087158 117.14952621 98.615802 117.13842316 99.8366394 117.12698364 C111.01833233 117.02550547 122.19993149 116.95061463 133.3819809 116.90156841 C139.13044976 116.87550522 144.87854607 116.84016627 150.62680054 116.78343201 C156.17705432 116.72899649 161.72695037 116.69918409 167.27745056 116.68624306 C169.39212168 116.67702398 171.50677381 116.65902107 173.62129211 116.63197899 C176.58970021 116.59553587 179.55664125 116.59069038 182.52523804 116.59300232 C183.39414673 116.57502594 184.26305542 116.55704956 185.15829468 116.53852844 C192.50360134 116.60019107 197.1521776 119.31479798 202.48812866 124.22312927 C203.02695679 124.86250427 203.56578491 125.50187927 204.12094116 126.16062927 C204.67523804 126.80000427 205.22953491 127.43937927 205.80062866 128.09812927 C210.47207198 134.76440514 209.98184041 142.37645053 209.24594116 150.16062927 C206.93114555 159.20194862 198.23331682 164.66932886 191.24594116 170.16062927 C190.41836304 170.82707458 189.59078491 171.4935199 188.73812866 172.18016052 C187.17142334 173.44149108 185.59960014 174.69648545 184.02328491 175.94578552 C180.492309 178.76162707 176.99569997 181.61865144 173.49594116 184.47312927 C168.39226845 188.63327593 163.25356051 192.74035716 158.05844116 196.78562927 C152.97230887 200.74923067 148.0296 204.85053212 143.13095093 209.04270935 C138.76919463 212.75871792 134.2891432 216.30094548 129.76644897 219.81809998 C124.18871166 224.17061176 118.73600088 228.66852585 113.28427124 233.17723083 C108.84940814 236.84390959 104.38807603 240.47139902 99.88265991 244.05125427 C96.40187094 246.83588545 92.95070071 249.65631555 89.49594116 252.47312927 C84.39219114 256.63318286 79.25356261 260.74035553 74.05844116 264.78562927 C68.97230887 268.74923067 64.0296 272.85053212 59.13095093 277.04270935 C54.76919463 280.75871792 50.2891432 284.30094548 45.76644897 287.81809998 C40.18871166 292.17061176 34.73600088 296.66852585 29.28427124 301.17723083 C24.84940814 304.84390959 20.38807603 308.47139902 15.88265991 312.05125427 C12.40187094 314.83588545 8.95070071 317.65631555 5.49594116 320.47312927 C0.39219114 324.63318286 -4.74643739 328.74035553 -9.94155884 332.78562927 C-15.02769113 336.74923067 -19.9704 340.85053212 -24.86904907 345.04270935 C-29.23080537 348.75871792 -33.7108568 352.30094548 -38.23355103 355.81809998 C-43.81128834 360.17061176 -49.26399912 364.66852585 -54.71572876 369.17723083 C-59.14073603 372.83576093 -63.58913344 376.45879404 -68.08999634 380.02391052 C-70.29865524 381.79537155 -72.48639118 383.58679579 -74.66812134 385.39109802 C-75.3718689 385.97045105 -76.07561646 386.54980408 -76.8006897 387.14671326 C-78.19041159 388.29174013 -79.57684973 389.44076856 -80.9593811 390.59446716 C-89.52253417 397.632252 -96.52153545 401.05855347 -107.75405884 400.16062927 C-114.33609196 398.87719169 -118.64478559 395.34614075 -122.75405884 390.16062927 C-126.82161105 383.73127255 -126.69317191 376.57638419 -125.75405884 369.16062927 C-124.58463142 365.52924941 -122.8666688 362.39283595 -120.91470337 359.12303162 C-119.50895232 356.74620642 -118.16117548 354.33991415 -116.81265259 351.93016052 C-114.57435852 347.9361898 -112.32131549 343.95117552 -110.05484009 339.97312927 C-107.23193316 335.01298274 -104.45062109 330.03149465 -101.69155884 325.03562927 C-97.60160673 317.64071586 -93.41591782 310.30307322 -89.21255493 302.97215271 C-85.62526764 296.70732246 -82.09864754 290.4116861 -78.60464478 284.09446716 C-75.27224546 278.07602776 -71.89401509 272.08431323 -68.50405884 266.09812927 C-63.67418375 257.56617086 -58.86111379 249.02499146 -54.06655884 240.47312927 C-53.16598755 238.86909241 -53.16598755 238.86909241 -52.2472229 237.23265076 C-51.68873657 236.23564148 -51.13025024 235.2386322 -50.55484009 234.21141052 C-50.06153198 233.33138367 -49.56822388 232.45135681 -49.05996704 231.54466248 C-46.64546991 227.57154432 -46.64546991 227.57154432 -45.75405884 223.16062927 C-47.55024658 223.17395294 -47.55024658 223.17395294 -49.38272095 223.18754578 C-60.68217518 223.2687254 -71.98157003 223.32863983 -83.28125 223.36787796 C-89.09018127 223.38872905 -94.89887661 223.41700188 -100.70767212 223.46238708 C-106.316267 223.50593254 -111.92463531 223.52978502 -117.53338623 223.54013824 C-119.67036504 223.54751394 -121.80733182 223.56191698 -123.94421387 223.5835495 C-126.94359884 223.61269863 -129.94205441 223.6165804 -132.94155884 223.61473083 C-133.81981827 223.62911194 -134.6980777 223.64349304 -135.60295105 223.65830994 C-143.0259704 223.60896503 -148.2878753 221.62681281 -153.56655884 216.34812927 C-157.35462548 210.82837502 -160.50423465 204.7494707 -159.38687134 197.91453552 C-158.19365624 193.19323382 -156.44904203 189.4196948 -153.60952759 185.46531677 C-152.67439331 184.16207458 -152.67439331 184.16207458 -151.72036743 182.83250427 C-148.55243404 178.52782796 -145.32415185 174.2727336 -142.06655884 170.03562927 C-140.64549906 168.17923103 -139.22492993 166.3224571 -137.80484009 164.46531677 C-136.76770874 163.10938416 -136.76770874 163.10938416 -135.70962524 161.72605896 C-133.03686189 158.21976716 -130.39217141 154.69302503 -127.75405884 151.16062927 C-122.44067577 144.0511602 -117.06100857 136.99323071 -111.67593384 129.93797302 C-107.67805127 124.69647431 -103.70066357 119.44083015 -99.75405884 114.16062927 C-95.18620216 108.04933512 -90.57166629 101.97488 -85.94155884 95.91062927 C-79.98415016 88.10755303 -74.07548917 80.26981503 -68.19497681 72.40867615 C-64.18353116 67.05159885 -60.13961066 61.72099431 -56.06655884 56.41062927 C-48.83698426 46.98451982 -41.71773999 37.47723754 -34.61734009 27.95359802 C-32.11706172 24.60195361 -29.60422454 21.26008433 -27.08218384 17.92478943 C-25.87950794 16.32726442 -24.69093951 14.71914282 -23.50405884 13.10984802 C-17.0437557 4.59284682 -10.90088783 0.06044406 0 0 Z " fill="#8F00FD" transform="translate(224.75405883789063,49.83937072753906)"/>
<path d="M0 0 C0.69112265 -0.00438225 1.3822453 -0.00876451 2.09431106 -0.01327956 C4.41564474 -0.02665924 6.73694047 -0.03284456 9.05830383 -0.03897095 C10.72062349 -0.04687262 12.38294143 -0.05514161 14.04525757 -0.06375122 C19.50963199 -0.08996553 24.97401405 -0.10527906 30.43843079 -0.11953735 C32.32004616 -0.12489743 34.20166148 -0.13027494 36.08327675 -0.13566971 C43.91112828 -0.15729827 51.73897776 -0.1760344 59.56685162 -0.1872921 C70.78186201 -0.20352747 81.99652574 -0.2366955 93.21140546 -0.29369295 C101.09857458 -0.33240984 108.98565105 -0.35192691 116.8729127 -0.35721266 C121.58268622 -0.36086395 126.29208993 -0.37286132 131.00176048 -0.4053154 C135.43500626 -0.43542658 139.86765907 -0.4416971 144.30098534 -0.42993164 C145.92472038 -0.42971115 147.54848318 -0.43799562 149.17212296 -0.45558548 C157.78946459 -0.54383188 164.34752066 -0.56088818 171.23921204 5.15390015 C168.23921204 6.15390015 168.23921204 6.15390015 166.54255962 5.3947525 C165.8870855 5.01657127 165.23161139 4.63839005 164.55627441 4.24874878 C157.73730974 1.0671995 150.52391764 1.59474166 143.16621399 1.63632202 C141.5490201 1.63089443 139.93183116 1.62376821 138.31465149 1.61508179 C133.94496168 1.59692543 129.57565176 1.60388279 125.20595574 1.61659813 C120.62435435 1.6267606 116.04278438 1.61732394 111.46118164 1.61105347 C103.7721424 1.6037887 96.08325716 1.61333627 88.39424133 1.63241577 C79.51051341 1.65420553 70.62715242 1.64711323 61.7434333 1.62511015 C54.10497282 1.60695045 46.46662268 1.60439991 38.82814759 1.61486483 C34.27064796 1.62109364 29.71332078 1.62195179 25.15583229 1.60871887 C20.87353217 1.59715182 16.59170498 1.60520144 12.30945587 1.6282959 C10.7397331 1.63357746 9.1699704 1.63207863 7.6002636 1.62324524 C5.45437972 1.61228396 3.31000336 1.62605719 1.16421509 1.64596558 C-0.03533153 1.64747368 -1.23487814 1.64898178 -2.47077465 1.65053558 C-9.32162527 2.69870017 -13.43122339 7.68328598 -17.92875671 12.54452515 C-19.76078796 14.15390015 -19.76078796 14.15390015 -22.76078796 14.15390015 C-20.28725532 8.08250184 -15.20914211 4.47028963 -9.76078796 1.15390015 C-6.31393142 0.00494797 -3.63738916 0.01633931 0 0 Z " fill="#6B0FB6" transform="translate(224.7607879638672,49.846099853515625)"/>
<path d="M0 0 C3.73487777 0.4979837 5.81237635 0.87491756 9 3 C10.92347793 3.30876873 10.92347793 3.30876873 13.04325867 3.2784729 C13.8635556 3.28963638 14.68385254 3.30079987 15.52900696 3.31230164 C16.42524277 3.31446182 17.32147858 3.31662201 18.24487305 3.31884766 C19.19140747 3.32889328 20.13794189 3.3389389 21.11315918 3.34928894 C24.24600611 3.38021307 27.37876724 3.39718177 30.51171875 3.4140625 C32.68220259 3.43276672 34.8526791 3.45233956 37.02314758 3.4727478 C42.73922411 3.52415381 48.45532424 3.56373422 54.17150879 3.60089111 C60.00307086 3.64087769 65.83453405 3.69199439 71.66601562 3.7421875 C83.11060771 3.83904706 94.55525552 3.92341973 106 4 C106.495 6.475 106.495 6.475 107 9 C106.34 9.33 105.68 9.66 105 10 C105 8.35 105 6.7 105 5 C103.20381226 5.01332367 103.20381226 5.01332367 101.37133789 5.0269165 C90.07188366 5.10809613 78.77248881 5.16801055 67.47280884 5.20724869 C61.66387757 5.22809978 55.85518222 5.2563726 50.04638672 5.30175781 C44.43779184 5.34530327 38.82942353 5.36915575 33.22067261 5.37950897 C31.0836938 5.38688467 28.94672701 5.40128771 26.80984497 5.42292023 C23.81046 5.45206936 20.81200443 5.45595113 17.8125 5.45410156 C16.49511086 5.47567322 16.49511086 5.47567322 15.15110779 5.49768066 C9.07931437 5.4573181 5.25247618 4.05779156 0 1 C0 0.67 0 0.34 0 0 Z " fill="#7319BA" transform="translate(74,268)"/>
<path d="M0 0 C0.66 0.33 1.32 0.66 2 1 C-0.06178074 2.75085334 -2.12439877 4.50070381 -4.1875 6.25 C-4.76564453 6.74113281 -5.34378906 7.23226562 -5.93945312 7.73828125 C-9.25231411 10.54579056 -12.5936212 13.30568908 -16 16 C-16.66 15.67 -17.32 15.34 -18 15 C-17.67 13.68 -17.34 12.36 -17 11 C-17.66 10.67 -18.32 10.34 -19 10 C-16.8125 7.9375 -16.8125 7.9375 -14 6 C-11.1875 6.25 -11.1875 6.25 -9 7 C-9 6.01 -9 5.02 -9 4 C-8.43410156 3.79503906 -7.86820312 3.59007812 -7.28515625 3.37890625 C-6.55167969 3.10949219 -5.81820313 2.84007812 -5.0625 2.5625 C-4.33160156 2.29566406 -3.60070312 2.02882812 -2.84765625 1.75390625 C-1.01694322 1.14613052 -1.01694322 1.14613052 0 0 Z " fill="#8107DF" transform="translate(427,208)"/>
<path d="M0 0 C0.33 0 0.66 0 1 0 C1 1.65 1 3.3 1 5 C0.34 5 -0.32 5 -1 5 C-1.10828125 5.56460938 -1.2165625 6.12921875 -1.328125 6.7109375 C-2.10618246 9.36176118 -3.24726863 11.30893464 -4.75 13.625 C-5.23984375 14.40101563 -5.7296875 15.17703125 -6.234375 15.9765625 C-8.31814246 18.36459689 -10.05332205 18.93863733 -13 20 C-15.77152212 22.52056045 -15.77152212 22.52056045 -18 25 C-16.67689238 22.19043335 -15.19173709 19.76090176 -13.3203125 17.28515625 C-12.80339844 16.59873047 -12.28648437 15.91230469 -11.75390625 15.20507812 C-11.21636719 14.49802734 -10.67882812 13.79097656 -10.125 13.0625 C-9.59519531 12.35931641 -9.06539062 11.65613281 -8.51953125 10.93164062 C-2.55960559 3.04176386 -2.55960559 3.04176386 0 0 Z " fill="#750AC6" transform="translate(160,118)"/>
<path d="M0 0 C2.97 0.495 2.97 0.495 6 1 C6 1.99 6 2.98 6 4 C15.0567749 4.19652291 15.0567749 4.19652291 24 3 C24.33 2.34 24.66 1.68 25 1 C27.475 1.495 27.475 1.495 30 2 C27.42154914 5.15143994 24.92960244 6.07118488 21 7 C14.30701499 7.65023975 9.04732137 6.97061401 3 4 C1 1.8125 1 1.8125 0 0 Z " fill="#780BCD" transform="translate(106,443)"/>
<path d="M0 0 C7.68618035 -0.12713055 15.37208796 -0.21449075 23.05908203 -0.2746582 C25.67214084 -0.29974952 28.28512982 -0.33383029 30.89794922 -0.37719727 C34.66130841 -0.43808146 38.4237369 -0.46626517 42.1875 -0.48828125 C43.34926758 -0.51408768 44.51103516 -0.5398941 45.70800781 -0.56648254 C52.8443795 -0.56893143 57.44093392 0.39475029 63 5 C60 6 60 6 58.16139221 5.24407959 C57.46948288 4.86672668 56.77757355 4.48937378 56.06469727 4.10058594 C50.38299352 1.43811288 45.15954489 1.39774404 38.96484375 1.390625 C37.84557999 1.37408875 36.72631622 1.35755249 35.57313538 1.34051514 C32.02786651 1.29225806 28.48302593 1.27071294 24.9375 1.25 C22.52146309 1.22182181 20.10544593 1.19189182 17.68945312 1.16015625 C11.79304593 1.08650507 5.89675808 1.03473225 0 1 C0 0.67 0 0.34 0 0 Z " fill="#6D10B7" transform="translate(333,50)"/>
<path d="M0 0 C1.65 0.33 3.3 0.66 5 1 C1.59409784 4.49275577 -1.9202773 7.71340683 -5.6875 10.8125 C-6.64011719 11.60269531 -7.59273437 12.39289063 -8.57421875 13.20703125 C-11 15 -11 15 -13 15 C-13 14.34 -13 13.68 -13 13 C-12.34 13 -11.68 13 -11 13 C-11 12.01 -11 11.02 -11 10 C-10.34 10 -9.68 10 -9 10 C-9 9.34 -9 8.68 -9 8 C-7.88625 7.690625 -7.88625 7.690625 -6.75 7.375 C-3.20768823 5.60384411 -1.97553159 3.36572049 0 0 Z " fill="#700DBE" transform="translate(196,392)"/>
<path d="M0 0 C2.475 0.495 2.475 0.495 5 1 C0.88928876 5.27997582 -3.5316942 9.06004526 -8.125 12.8125 C-9.19814453 13.7087207 -9.19814453 13.7087207 -10.29296875 14.62304688 C-10.98261719 15.18701172 -11.67226563 15.75097656 -12.3828125 16.33203125 C-13.00559082 16.84483643 -13.62836914 17.3576416 -14.27001953 17.88598633 C-16 19 -16 19 -19 19 C-15.375 14.125 -15.375 14.125 -12 13 C-12 11.68 -12 10.36 -12 9 C-11.21625 9.061875 -10.4325 9.12375 -9.625 9.1875 C-8.75875 9.125625 -7.8925 9.06375 -7 9 C-6.34 8.01 -5.68 7.02 -5 6 C-3.700625 5.2575 -3.700625 5.2575 -2.375 4.5 C-1.59125 4.005 -0.8075 3.51 0 3 C0 2.01 0 1.02 0 0 Z " fill="#6C0EB6" transform="translate(380,243)"/>
<path d="M0 0 C0.578125 1.87890625 0.578125 1.87890625 1 4 C-0.25 5.9375 -0.25 5.9375 -2 8 C-2.495 8.845625 -2.99 9.69125 -3.5 10.5625 C-4.85673075 12.76718747 -5.97688521 14.39836746 -8 16 C-8.99 16 -9.98 16 -11 16 C-9.32076975 12.19866558 -6.88537166 9.02917298 -4.375 5.75 C-3.95476562 5.19570312 -3.53453125 4.64140625 -3.1015625 4.0703125 C-2.07061281 2.71133337 -1.03570089 1.35536165 0 0 Z " fill="#770AD1" transform="translate(97,201)"/>
<path d="M0 0 C0.33 0 0.66 0 1 0 C1.9375 2.5 1.9375 2.5 2 6 C0.40150184 8.31417964 -1.37597958 10.2510069 -3.3359375 12.265625 C-5.078864 13.91061436 -5.078864 13.91061436 -6 16 C-6.66 16 -7.32 16 -8 16 C-8 16.99 -8 17.98 -8 19 C-8.66 19 -9.32 19 -10 19 C-8.40376856 14.60616294 -6.21975667 10.71004193 -3.875 6.6875 C-3.50246094 6.04232422 -3.12992188 5.39714844 -2.74609375 4.73242188 C-1.83367787 3.15324055 -0.91724491 1.57638136 0 0 Z " fill="#780ACD" transform="translate(174,285)"/>
<path d="M0 0 C5.73986095 5.27446682 8.74003132 10.49387621 9.1875 18.25 C8.97711464 22.45770717 8.13610607 25.95262214 7 30 C6.67 30 6.34 30 6 30 C6 23.07 6 16.14 6 9 C5.01 8.67 4.02 8.34 3 8 C1.76132839 5.38502661 0.91496017 2.74488051 0 0 Z " fill="#6310A3" transform="translate(396,56)"/>
<path d="M0 0 C0.33 0.66 0.66 1.32 1 2 C-1.22877511 8.56902139 -1.22877511 8.56902139 -4.125 10.1875 C-4.74375 10.455625 -5.3625 10.72375 -6 11 C-6.80528889 13.05000871 -6.80528889 13.05000871 -7 15 C-8.32 15.33 -9.64 15.66 -11 16 C-9.32076975 12.19866558 -6.88537166 9.02917298 -4.375 5.75 C-3.95476562 5.19570312 -3.53453125 4.64140625 -3.1015625 4.0703125 C-2.07061281 2.71133337 -1.03570089 1.35536165 0 0 Z " fill="#6E0CC1" transform="translate(119,172)"/>
<path d="M0 0 C0.33 0 0.66 0 1 0 C1 1.98 1 3.96 1 6 C0.401875 6.020625 -0.19625 6.04125 -0.8125 6.0625 C-3.41775177 6.87867578 -3.41775177 6.87867578 -4.4375 10.4375 C-6 14 -6 14 -8.6875 15.4375 C-9.450625 15.623125 -10.21375 15.80875 -11 16 C-9.31991577 12.21751528 -6.92161446 9.0307578 -4.4375 5.75 C-4.02564453 5.19570312 -3.61378906 4.64140625 -3.18945312 4.0703125 C-2.15306751 2.69298825 -1.07961421 1.3437077 0 0 Z " fill="#6F0CB7" transform="translate(141,143)"/>
<path d="M0 0 C1 2 1 2 0.56640625 4.04296875 C-0.21942863 8.1455688 -0.10524414 12.1465908 -0.0625 16.3125 C-0.05798828 17.14845703 -0.05347656 17.98441406 -0.04882812 18.84570312 C-0.03710548 20.89716649 -0.01917203 22.94859273 0 25 C-3.50938905 21.49061095 -3.18933441 17.93458231 -3.25 13.1875 C-3.27578125 11.98480469 -3.3015625 10.78210938 -3.328125 9.54296875 C-2.9731533 5.71011955 -1.92202587 3.30284973 0 0 Z " fill="#6C10AF" transform="translate(102,413)"/>
<path d="M0 0 C-6.93 5.445 -6.93 5.445 -14 11 C-14.33 9.68 -14.66 8.36 -15 7 C-9.25 3 -9.25 3 -7 3 C-6.67 2.01 -6.34 1.02 -6 0 C-3.42525708 -0.99667468 -2.51072708 -1.25536354 0 0 Z " fill="#6F0DC1" transform="translate(360,265)"/>
<path d="M0 0 C2.125 0.375 2.125 0.375 4 1 C2.40517782 2.67561054 0.79883156 4.34025934 -0.8125 6 C-1.70582031 6.928125 -2.59914062 7.85625 -3.51953125 8.8125 C-6 11 -6 11 -9 11 C-7.44095325 7.17324889 -4.96833913 4.81992217 -2 2 C-1.34 1.34 -0.68 0.68 0 0 Z " fill="#750AC6" transform="translate(211,53)"/>
<path d="M0 0 C0.33 1.32 0.66 2.64 1 4 C0.360625 4.226875 -0.27875 4.45375 -0.9375 4.6875 C-3.24928429 5.82191056 -3.24928429 5.82191056 -3.5625 8.375 C-3.706875 9.24125 -3.85125 10.1075 -4 11 C-5.52329844 13.61136876 -6.30531281 14.76182154 -9.1875 15.75 C-10.0846875 15.87375 -10.0846875 15.87375 -11 16 C-9.32076975 12.19866558 -6.88537166 9.02917298 -4.375 5.75 C-3.95476562 5.19570312 -3.53453125 4.64140625 -3.1015625 4.0703125 C-2.07061281 2.71133337 -1.03570089 1.35536165 0 0 Z " fill="#730CC4" transform="translate(172,102)"/>
<path d="M0 0 C0.7109375 1.62109375 0.7109375 1.62109375 1 4 C-0.3984375 6.91015625 -0.3984375 6.91015625 -2.375 10.0625 C-5.06151031 14.35507858 -5.06151031 14.35507858 -7 19 C-7.99 19 -8.98 19 -10 19 C-8.40376856 14.60616294 -6.21975667 10.71004193 -3.875 6.6875 C-3.50246094 6.04232422 -3.12992188 5.39714844 -2.74609375 4.73242188 C-1.83367787 3.15324055 -0.91724491 1.57638136 0 0 Z " fill="#6E0EBB" transform="translate(142,342)"/>
<path d="M0 0 C0.66 0.33 1.32 0.66 2 1 C-4.93 6.94 -4.93 6.94 -12 13 C-12.66 12.67 -13.32 12.34 -14 12 C-13.34 10.68 -12.68 9.36 -12 8 C-11.34 8 -10.68 8 -10 8 C-9.67 7.01 -9.34 6.02 -9 5 C-8.01 5 -7.02 5 -6 5 C-6 4.34 -6 3.68 -6 3 C-5.195625 2.690625 -4.39125 2.38125 -3.5625 2.0625 C-1.10919595 1.23664655 -1.10919595 1.23664655 0 0 Z " fill="#710DC7" transform="translate(307,305)"/>
<path d="M0 0 C0.93820902 2.53258876 1.13196296 3.65773989 0.14453125 6.21875 C-2.22494699 10.27674206 -4.37457332 13.91167357 -8 17 C-8 12.90540797 -6.03072724 10.23249165 -4 6.8125 C-3.6184375 6.15830078 -3.236875 5.50410156 -2.84375 4.83007812 C-1.90161068 3.21666455 -0.95155734 1.60787702 0 0 Z " fill="#660EB6" transform="translate(156,317)"/>
<path d="M0 0 C0 3.24792684 -0.6507329 5.07658794 -2 8 C-4.35953094 10.35953094 -5.77895617 10.49141413 -9 11 C-7.44095325 7.17324889 -4.96833913 4.81992217 -2 2 C-1.34 1.34 -0.68 0.68 0 0 Z " fill="#780ACE" transform="translate(182,91)"/>
<path d="M0 0 C0.68359375 1.640625 0.68359375 1.640625 1 4 C-0.21484375 6.796875 -0.21484375 6.796875 -1.9375 9.75 C-2.50339844 10.73484375 -3.06929688 11.7196875 -3.65234375 12.734375 C-4.09707031 13.48203125 -4.54179688 14.2296875 -5 15 C-5.66 15 -6.32 15 -7 15 C-7 15.99 -7 16.98 -7 18 C-7.66 18 -8.32 18 -9 18 C-7.45614871 13.85967154 -5.48971062 10.06446947 -3.375 6.1875 C-3.05015625 5.59001953 -2.7253125 4.99253906 -2.390625 4.37695312 C-1.59620849 2.91662865 -0.79844624 1.45812509 0 0 Z " fill="#630FAD" transform="translate(131,361)"/>
<path d="M0 0 C0.33 0 0.66 0 1 0 C1 1.98 1 3.96 1 6 C0.34 6 -0.32 6 -1 6 C-1 6.66 -1 7.32 -1 8 C-2.98 8.99 -4.96 9.98 -7 11 C-5.5129879 6.40378078 -3.20187872 3.53027653 0 0 Z " fill="#710BC6" transform="translate(76,229)"/>
<path d="M0 0 C1.32 0.33 2.64 0.66 4 1 C1.03 3.64 -1.94 6.28 -5 9 C-5.66 8.67 -6.32 8.34 -7 8 C-6.67 7.01 -6.34 6.02 -6 5 C-5.34 5 -4.68 5 -4 5 C-4 4.34 -4 3.68 -4 3 C-3.01 3 -2.02 3 -1 3 C-0.67 2.01 -0.34 1.02 0 0 Z " fill="#720DC1" transform="translate(237,360)"/>
<path d="M0 0 C1.32 0.33 2.64 0.66 4 1 C2.23519919 2.8187336 0.46369235 4.62994991 -1.3125 6.4375 C-2.06176758 7.2119043 -2.06176758 7.2119043 -2.82617188 8.00195312 C-5.19869635 10.40590176 -6.74970379 11.91656793 -10 13 C-10 12.01 -10 11.02 -10 10 C-8.36209288 8.95355934 -6.68991979 7.9601817 -5 7 C-2.31979608 4.61759651 -1.14462392 3.43387177 0 0 Z " fill="#680EAA" transform="translate(359,125)"/>
<path d="M0 0 C0.99 0.33 1.98 0.66 3 1 C-0.3 3.64 -3.6 6.28 -7 9 C-8 7 -8 7 -7.4375 4.9375 C-6 3 -6 3 -2.875 2.25 C-1.92625 2.1675 -0.9775 2.085 0 2 C0 1.34 0 0.68 0 0 Z " fill="#720CC0" transform="translate(158,425)"/>
<path d="M0 0 C1.4540625 0.0309375 1.4540625 0.0309375 2.9375 0.0625 C0.12945732 3.02654505 -2.24565774 5.50749019 -6.0625 7.0625 C-3.83347902 0.07823427 -3.83347902 0.07823427 0 0 Z " fill="#730BCA" transform="translate(257.0625,344.9375)"/>
<path d="M0 0 C1 2 1 2 0.0625 5.125 C-0.288125 6.07375 -0.63875 7.0225 -1 8 C-2.32 8 -3.64 8 -5 8 C-5.28875 8.639375 -5.5775 9.27875 -5.875 9.9375 C-7 12 -7 12 -9 13 C-7.50923566 9.7173068 -5.61379679 7.06922559 -3.375 4.25 C-2.74335937 3.45078125 -2.11171875 2.6515625 -1.4609375 1.828125 C-0.97882813 1.22484375 -0.49671875 0.6215625 0 0 Z " fill="#670CAB" transform="translate(107,188)"/>
<path d="M0 0 C3.73487777 0.4979837 5.81237635 0.87491756 9 3 C11.73872955 3.45772063 11.73872955 3.45772063 14.6875 3.625 C15.68136719 3.69976562 16.67523438 3.77453125 17.69921875 3.8515625 C18.45847656 3.90054687 19.21773437 3.94953125 20 4 C20 4.33 20 4.66 20 5 C12.11397658 5.4731614 6.79219135 5.17981006 0 1 C0 0.67 0 0.34 0 0 Z " fill="#6C11AD" transform="translate(74,268)"/>
<path d="M0 0 C1.32 0.33 2.64 0.66 4 1 C1.03 3.64 -1.94 6.28 -5 9 C-5.66 8.67 -6.32 8.34 -7 8 C-5.75 5.5 -5.75 5.5 -4 3 C-2.68 3 -1.36 3 0 3 C0 2.01 0 1.02 0 0 Z " fill="#6D0DBA" transform="translate(321,292)"/>
<path d="M0 0 C0.93065133 2.60582371 1.14917407 3.64198224 0.0625 6.25 C-0.4634375 7.11625 -0.4634375 7.11625 -1 8 C-1.66 8 -2.32 8 -3 8 C-3.33 9.65 -3.66 11.3 -4 13 C-4.66 13 -5.32 13 -6 13 C-4.58707905 8.1725201 -2.57025846 4.2837641 0 0 Z " fill="#680EAF" transform="translate(163,304)"/>
<path d="M0 0 C6.43985624 -0.67081836 9.83783423 1.24569762 15 5 C11.41440251 6.19519916 10.80277556 5.74530914 7.5 4.1875 C6.7265625 3.83042969 5.953125 3.47335938 5.15625 3.10546875 C3 2 3 2 0 0 Z " fill="#5F11A2" transform="translate(381,50)"/>
<path d="M0 0 C2.97 0.495 2.97 0.495 6 1 C6 1.99 6 2.98 6 4 C7.65 4.33 9.3 4.66 11 5 C9.375 5.75 9.375 5.75 7 6 C1.4109589 2.82191781 1.4109589 2.82191781 0 0 Z " fill="#6F0EB4" transform="translate(106,443)"/>
<path d="M0 0 C1.67542976 0.28604898 3.34385343 0.61781233 5 1 C2.6875 3.5 2.6875 3.5 0 6 C-0.99 6 -1.98 6 -3 6 C-1.125 1.125 -1.125 1.125 0 0 Z " fill="#7C09D1" transform="translate(196,392)"/>
<path d="M0 0 C0.6875 1.6875 0.6875 1.6875 1 4 C-0.3125 6.75 -0.3125 6.75 -2 9 C-2.66 9 -3.32 9 -4 9 C-4 9.99 -4 10.98 -4 12 C-4.66 12 -5.32 12 -6 12 C-4.43358249 7.69235185 -2.31663844 3.93828536 0 0 Z " fill="#650CA9" transform="translate(170,292)"/>
<path d="M0 0 C0.99 0.33 1.98 0.66 3 1 C0.33333333 3.66666667 -2.33333333 6.33333333 -5 9 C-5.66 8.67 -6.32 8.34 -7 8 C-6.25 6.0625 -6.25 6.0625 -5 4 C-3.67405895 3.63837971 -2.34061543 3.30271961 -1 3 C-0.67 2.01 -0.34 1.02 0 0 Z " fill="#6D0DBA" transform="translate(290,317)"/>
<path d="M0 0 C0.66 0.33 1.32 0.66 2 1 C0.8803014 2.00593243 -0.2459412 3.0045849 -1.375 4 C-2.00148438 4.556875 -2.62796875 5.11375 -3.2734375 5.6875 C-5 7 -5 7 -7 7 C-7 5.68 -7 4.36 -7 3 C-4.69631264 1.93347808 -2.35981813 0.93578995 0 0 Z " fill="#6D0DBE" transform="translate(337,281)"/>
<path d="M0 0 C1.65 0 3.3 0 5 0 C2.19195732 2.96404505 -0.18315774 5.44499019 -4 7 C-2.68 4.69 -1.36 2.38 0 0 Z " fill="#6F0EBC" transform="translate(140,438)"/>
<path d="M0 0 C-0.1875 1.8125 -0.1875 1.8125 -1 4 C-3.5625 5.75 -3.5625 5.75 -6 7 C-6 5.68 -6 4.36 -6 3 C-2.78571429 0 -2.78571429 0 0 0 Z " fill="#790BD2" transform="translate(351,269)"/>
<path d="M0 0 C0.598125 0.309375 1.19625 0.61875 1.8125 0.9375 C4.08956772 2.10209704 4.08956772 2.10209704 7 3 C6.67 4.65 6.34 6.3 6 8 C1.125 3.375 1.125 3.375 0 0 Z " fill="#730CBC" transform="translate(68,260)"/>
<path d="M0 0 C0.33 0.66 0.66 1.32 1 2 C-0.1875 5.0625 -0.1875 5.0625 -2 8 C-4.1875 8.875 -4.1875 8.875 -6 9 C-4.47291037 5.56404834 -2.40072955 2.88087546 0 0 Z " fill="#6C0CB4" transform="translate(129,159)"/>
<path d="M0 0 C0.33 0 0.66 0 1 0 C1 1.65 1 3.3 1 5 C0.34 5 -0.32 5 -1 5 C-1 5.66 -1 6.32 -1 7 C-2.32 7.33 -3.64 7.66 -5 8 C-3.6299034 5.0490227 -2.06764583 2.51713405 0 0 Z " fill="#710CBA" transform="translate(160,118)"/>
<path d="M0 0 C1 2 1 2 0.3125 4.5625 C-1 7 -1 7 -3.125 7.8125 C-3.74375 7.874375 -4.3625 7.93625 -5 8 C-3.62845496 5.04590299 -2.01136276 2.55991624 0 0 Z " fill="#6F0CBE" transform="translate(85,217)"/>
<path d="M0 0 C0.6875 1.6875 0.6875 1.6875 1 4 C-0.25 6.6875 -0.25 6.6875 -2 9 C-2.99 9.33 -3.98 9.66 -5 10 C-3.66511872 6.40608886 -2.03977277 3.24509304 0 0 Z " fill="#670FAE" transform="translate(142,342)"/>
<path d="M0 0 C0.66 0.33 1.32 0.66 2 1 C-1.96 4.465 -1.96 4.465 -6 8 C-7 4 -7 4 -7 3 C-5.5459375 2.5359375 -5.5459375 2.5359375 -4.0625 2.0625 C-1.15934208 1.30476658 -1.15934208 1.30476658 0 0 Z " fill="#680BAC" transform="translate(427,208)"/>
<path d="M0 0 C2.97 0.495 2.97 0.495 6 1 C3.60490662 3.89932357 1.68754757 4.50168276 -2 5 C-2 4.34 -2 3.68 -2 3 C-1.34 2.67 -0.68 2.34 0 2 C0 1.34 0 0.68 0 0 Z " fill="#720EC0" transform="translate(130,444)"/>
<path d="M0 0 C0.99 0 1.98 0 3 0 C3.33 0.99 3.66 1.98 4 3 C3.01 3.99 2.02 4.98 1 6 C0.34 5.67 -0.32 5.34 -1 5 C-0.67 3.35 -0.34 1.7 0 0 Z " fill="#8008D6" transform="translate(163,418)"/>
<path d="M0 0 C1.65 0 3.3 0 5 0 C2.42215154 2.64752004 0.08351902 4.94432065 -3 7 C-2.690625 6.401875 -2.38125 5.80375 -2.0625 5.1875 C-0.89790296 2.91043228 -0.89790296 2.91043228 0 0 Z " fill="#670EB2" transform="translate(171,413)"/>
<path d="M0 0 C2.5 2.3125 2.5 2.3125 5 5 C5 5.99 5 6.98 5 8 C3.0625 7.375 3.0625 7.375 1 6 C0.25 2.875 0.25 2.875 0 0 Z " fill="#710DBA" transform="translate(426,174)"/>
<path d="M0 0 C0.33 1.32 0.66 2.64 1 4 C-0.98 5.32 -2.96 6.64 -5 8 C-3.62845496 5.04590299 -2.01136276 2.55991624 0 0 Z " fill="#670CAF" transform="translate(97,201)"/>
<path d="M0 0 C2 2 2 2 2 5 C1.34 5 0.68 5 0 5 C-0.33 5.66 -0.66 6.32 -1 7 C-1.625 4.625 -1.625 4.625 -2 2 C-1.34 1.34 -0.68 0.68 0 0 Z " fill="#9003F0" transform="translate(100,199)"/>
<path d="M0 0 C-3.465 2.97 -3.465 2.97 -7 6 C-6.75 3.625 -6.75 3.625 -6 1 C-2.69333333 -1.34666667 -2.69333333 -1.34666667 0 0 Z " fill="#690EB2" transform="translate(339,149)"/>
<path d="M0 0 C0.33 1.32 0.66 2.64 1 4 C-0.98 5.32 -2.96 6.64 -5 8 C-3.62845496 5.04590299 -2.01136276 2.55991624 0 0 Z " fill="#660CAA" transform="translate(172,102)"/>
<path d="M0 0 C0.66 0.66 1.32 1.32 2 2 C1.625 4.125 1.625 4.125 1 6 C-0.32 6 -1.64 6 -3 6 C-2 4 -1 2 0 0 Z " fill="#8706F5" transform="translate(202,64)"/>
<path d="M0 0 C2.97 0.495 2.97 0.495 6 1 C4.35 2.65 2.7 4.3 1 6 C0.34 5.67 -0.32 5.34 -1 5 C-0.67 3.35 -0.34 1.7 0 0 Z " fill="#720ABE" transform="translate(210,380)"/>
<path d="M0 0 C0.66 0.33 1.32 0.66 2 1 C-0.64 2.98 -3.28 4.96 -6 7 C-6 5.68 -6 4.36 -6 3 C-5.195625 2.690625 -4.39125 2.38125 -3.5625 2.0625 C-1.10919595 1.23664655 -1.10919595 1.23664655 0 0 Z " fill="#6D0FBA" transform="translate(307,305)"/>
<path d="M0 0 C0.33 0 0.66 0 1 0 C1 1.98 1 3.96 1 6 C0.01 6.33 -0.98 6.66 -2 7 C-2.125 4.625 -2.125 4.625 -2 2 C-1.34 1.34 -0.68 0.68 0 0 Z " fill="#760AD0" transform="translate(141,143)"/>
</svg>
